<?xml version="1.0" encoding="UTF-8" standalone="no"?>
<svg
   xmlns:dc="http://purl.org/dc/elements/1.1/"
   xmlns:cc="http://creativecommons.org/ns#"
   xmlns:rdf="http://www.w3.org/1999/02/22-rdf-syntax-ns#"
   xmlns:svg="http://www.w3.org/2000/svg"
   xmlns="http://www.w3.org/2000/svg"
   id="svg6"
   version="1.1"
   viewBox="0 0 16 16"
   height="16"
   width="16">
  <metadata
     id="metadata12">
    <rdf:RDF>
      <cc:Work
         rdf:about="">
        <dc:format>image/svg+xml</dc:format>
        <dc:type
           rdf:resource="http://purl.org/dc/dcmitype/StillImage" />
        <dc:title></dc:title>
      </cc:Work>
    </rdf:RDF>
  </metadata>
  <defs
     id="defs10" />
  <path
     style="fill:#0060df;fill-opacity:1"
     id="path2"
     d="M14.923 1.618A1 1 0 0 0 14 1H9a1 1 0 0 0 0 2h2.586L8.293 6.293a1 1 0 1 0 1.414 1.414L13 4.414V7a1 1 0 0 0 2 0V2a1 1 0 0 0-.077-.382z"
     fill="context-fill" />
  <path
     style="fill:#0060df;fill-opacity:1"
     id="path4"
     d="M14 10a1 1 0 0 0-1 1v2H3V3h2a1 1 0 0 0 0-2H2a1 1 0 0 0-1 1v12a1 1 0 0 0 1 1h12a1 1 0 0 0 1-1v-3a1 1 0 0 0-1-1z"
     fill="context-fill" />
</svg>
