<?xml version="1.0" encoding="UTF-8" standalone="no"?>
<svg
   xmlns:dc="http://purl.org/dc/elements/1.1/"
   xmlns:cc="http://creativecommons.org/ns#"
   xmlns:rdf="http://www.w3.org/1999/02/22-rdf-syntax-ns#"
   xmlns:svg="http://www.w3.org/2000/svg"
   xmlns="http://www.w3.org/2000/svg"
   id="svg4"
   version="1.1"
   viewBox="0 0 16 16"
   height="16"
   width="16">
  <metadata
     id="metadata10">
    <rdf:RDF>
      <cc:Work
         rdf:about="">
        <dc:format>image/svg+xml</dc:format>
        <dc:type
           rdf:resource="http://purl.org/dc/dcmitype/StillImage" />
        <dc:title></dc:title>
      </cc:Work>
    </rdf:RDF>
  </metadata>
  <defs
     id="defs8" />
  <path
     style="fill:#000000;fill-opacity:1;stroke-width:0.75586599"
     id="path2"
     d="M 5.0573622,9.8688227 A 1.5071968,1.5071968 0 0 0 3.6129023,10.95727 c 0,0.0075 -0.010582,0.01133 -0.01285,0.01889 -0.2736234,0.857908 -0.5328855,1.594876 -1.3295682,1.944843 l -0.017385,0.0091 -0.01814,0.0091 a 0.37793299,0.37793299 0 0 0 -0.20106,0.331041 0.37793299,0.37793299 0 0 0 0.377933,0.377934 5.2714093,5.2714093 0 0 0 3.6470533,-1.1338 c 0.00453,-0.0045 0.00529,-0.0098 0.00983,-0.01436 A 1.5064409,1.5064409 0 0 0 5.0573622,9.8688227 Z M 13.895703,2.5422135 a 0.74377212,0.74377212 0 0 0 -1.011348,-0.03477 L 6.8139947,7.7985055 a 0.74226039,0.74226039 0 0 0 -0.037037,1.0831559 l 0.7800536,0.7792983 a 0.74301626,0.74301626 0 0 0 0.5238152,0.216933 h 0.024943 A 0.74226039,0.74226039 0 0 0 8.6394111,9.6246777 L 13.930473,3.554318 a 0.74226039,0.74226039 0 0 0 -0.03477,-1.0121045 z" />
</svg>
