<?xml version="1.0" encoding="UTF-8" standalone="no"?>
<svg
   xmlns:dc="http://purl.org/dc/elements/1.1/"
   xmlns:cc="http://creativecommons.org/ns#"
   xmlns:rdf="http://www.w3.org/1999/02/22-rdf-syntax-ns#"
   xmlns:svg="http://www.w3.org/2000/svg"
   xmlns="http://www.w3.org/2000/svg"
   id="svg4"
   version="1.1"
   viewBox="0 0 16 16"
   height="16"
   width="16">
  <metadata
     id="metadata10">
    <rdf:RDF>
      <cc:Work
         rdf:about="">
        <dc:format>image/svg+xml</dc:format>
        <dc:type
           rdf:resource="http://purl.org/dc/dcmitype/StillImage" />
        <dc:title></dc:title>
      </cc:Work>
    </rdf:RDF>
  </metadata>
  <defs
     id="defs8" />
  <path
     style="fill:#ffffff;fill-opacity:1"
     id="path2"
     d="M14.742 12.106L9.789 2.2a2 2 0 0 0-3.578 0l-4.953 9.91A2 2 0 0 0 3.047 15h9.905a2 2 0 0 0 1.79-2.894zM7 5a1 1 0 0 1 2 0v4a1 1 0 0 1-2 0zm1 8.25A1.25 1.25 0 1 1 9.25 12 1.25 1.25 0 0 1 8 13.25z"
     fill="context-fill" />
</svg>
