<svg width="512" height="512" xmlns="http://www.w3.org/2000/svg">

 <g>
  <title>background</title>
  <rect fill="none" id="canvas_background" height="402" width="582" y="-1" x="-1"/>
 </g>
 <g>
  <title>Layer 1</title>
  <path fill="#ffffff" id="svg_1" d="m86.400002,480l339.200005,0c12.300018,0 22.399994,-9.899994 22.399994,-22.100006l0,-211.899994c0,-12.199997 -10,-22 -22.399994,-22l-264.600006,0l0,-30.899994c0,-27.300003 9.899994,-61.100006 28.100006,-80.300003l0,0l0,-0.300003c17.599991,-18.599998 41.899994,-29.5 66.799988,-29.5l0.099991,0l0.099991,0c24.900024,0 49.200012,10.900002 66.800018,29.5l0,0.199997l0,0.100006c11.300018,11.899994 19.399994,29.300003 24,47.300003l53.399994,0c-5.899994,-31.300003 -19.699982,-61.800003 -39.199982,-82.400009c-26.200012,-27.799995 -63.700012,-45.699997 -105,-45.699997c-0.100006,0 -0.100006,0 -0.100006,0c0,0 -0.099991,0 -0.099991,0c-41.300003,0 -79,17.900002 -105.300003,45.599998c-26.400009,27.800003 -42.600006,73.900002 -42.600006,115.400002l0,31l-19,0l-2.599998,0c-12.400002,0 -22.400002,9.899994 -22.400002,22l0,211.899994c0,12.200012 10,22.100006 22.400002,22.100006z"/>
 </g>
</svg>