<?xml version="1.0" encoding="UTF-8" standalone="no"?>
<svg
   xmlns:dc="http://purl.org/dc/elements/1.1/"
   xmlns:cc="http://creativecommons.org/ns#"
   xmlns:rdf="http://www.w3.org/1999/02/22-rdf-syntax-ns#"
   xmlns:svg="http://www.w3.org/2000/svg"
   xmlns="http://www.w3.org/2000/svg"
   xml:space="preserve"
   width="512px"
   viewBox="0 0 512 512"
   version="1.1"
   style="enable-background:new 0 0 512 512;"
   id="Layer_1"
   height="512px"><metadata
     id="metadata9"><rdf:RDF><cc:Work
         rdf:about=""><dc:format>image/svg+xml</dc:format><dc:type
           rdf:resource="http://purl.org/dc/dcmitype/StillImage" /><dc:title></dc:title></cc:Work></rdf:RDF></metadata><defs
     id="defs7" /><path
     style="fill:#ffffff;fill-opacity:1"
     id="path2"
     d="M461.6,109.6l-54.9-43.3c-1.7-1.4-3.8-2.4-6.2-2.4c-2.4,0-4.6,1-6.3,2.5L194.5,323c0,0-78.5-75.5-80.7-77.7  c-2.2-2.2-5.1-5.9-9.5-5.9c-4.4,0-6.4,3.1-8.7,5.4c-1.7,1.8-29.7,31.2-43.5,45.8c-0.8,0.9-1.3,1.4-2,2.1c-1.2,1.7-2,3.6-2,5.7  c0,2.2,0.8,4,2,5.7l2.8,2.6c0,0,139.3,133.8,141.6,136.1c2.3,2.3,5.1,5.2,9.2,5.2c4,0,7.3-4.3,9.2-6.2L462,121.8  c1.2-1.7,2-3.6,2-5.8C464,113.5,463,111.4,461.6,109.6z" /></svg>