<?xml version="1.0" encoding="UTF-8" standalone="no"?>
<svg
   xmlns:dc="http://purl.org/dc/elements/1.1/"
   xmlns:cc="http://creativecommons.org/ns#"
   xmlns:rdf="http://www.w3.org/1999/02/22-rdf-syntax-ns#"
   xmlns:svg="http://www.w3.org/2000/svg"
   xmlns="http://www.w3.org/2000/svg"
   xmlns:sodipodi="http://sodipodi.sourceforge.net/DTD/sodipodi-0.dtd"
   xmlns:inkscape="http://www.inkscape.org/namespaces/inkscape"
   height="512px"
   id="Layer_1"
   style="enable-background:new 0 0 512 512;"
   version="1.1"
   viewBox="0 0 512 512"
   width="512px"
   xml:space="preserve"
   sodipodi:docname="options.svg"
   inkscape:version="0.92.1 r15371"><metadata
     id="metadata9"><rdf:RDF><cc:Work
         rdf:about=""><dc:format>image/svg+xml</dc:format><dc:type
           rdf:resource="http://purl.org/dc/dcmitype/StillImage" /><dc:title></dc:title></cc:Work></rdf:RDF></metadata><defs
     id="defs7" /><sodipodi:namedview
     pagecolor="#ffffff"
     bordercolor="#666666"
     borderopacity="1"
     objecttolerance="10"
     gridtolerance="10"
     guidetolerance="10"
     inkscape:pageopacity="0"
     inkscape:pageshadow="2"
     inkscape:window-width="1920"
     inkscape:window-height="1046"
     id="namedview5"
     showgrid="false"
     inkscape:zoom="0.4609375"
     inkscape:cx="256"
     inkscape:cy="256"
     inkscape:window-x="-11"
     inkscape:window-y="-11"
     inkscape:window-maximized="1"
     inkscape:current-layer="Layer_1" /><path
     d="M448,294.4v-76.8h-42.8c-3.4-14.4-8.9-28-16.1-40.5l29.8-29.7l-54.3-54.3l-29.1,29.1c-12.6-7.7-26.4-13.5-41.1-17.3V64  h-76.8v40.9c-14.7,3.8-28.5,9.7-41.1,17.3l-29.1-29.1l-54.3,54.3l29.8,29.7c-7.2,12.5-12.6,26.1-16.1,40.5H64v76.8h44.1  c3.8,13.7,9.5,26.6,16.7,38.6l-31.7,31.7l54.3,54.3l32.3-32.3c11.7,6.8,24.5,11.9,37.9,15.4v46h76.8v-46  c13.5-3.5,26.2-8.6,37.9-15.4l32.3,32.3l54.3-54.3L387.3,333c7.2-11.9,12.9-24.8,16.7-38.6H448z M256,309.8  c-29.7,0-53.7-24.1-53.7-53.8s24-53.8,53.7-53.8s53.8,24.1,53.8,53.8S285.7,309.8,256,309.8z"
     id="path2"
     style="fill:#707070;fill-opacity:1" /></svg>